#!OML:ASF H:\Dans Jumps\Project 1\Capture day 1\Session 1\subject.ASF
:FULLY-SPECIFIED
:DEGREES
600
root 0.0281096 17.7183 2.41533 6.69593 -0.191256 -1.89707
lowerback -4.15248 -0.369504 -0.123635
upperback 0.814903 -0.532978 1.49865
thorax 3.18283 -0.282022 1.57559
lowerneck -12.3011 -1.96776 -3.40545
upperneck 16.7267 -2.39351 2.03219
head 7.221 -1.17969 0.987856
rclavicle 1.56543e-015 -7.95139e-015
rhumerus -28.5572 -20.606 -78.6085
rradius 21.6714
rwrist 37.1285
rhand -20.122 -26.0115
rfingers 7.12502
rthumb 6.22204 -55.9001
lclavicle 1.56543e-015 -7.95139e-015
lhumerus -25.8776 2.49137 88.4398
lradius 16.2695
lwrist 1.92643
lhand -26.3973 -5.21119
lfingers 7.12502
lthumb 0.162051 24.7685
rfemur -11.3659 -0.926832 18.7575
rtibia 19.4952
rfoot -13.1666 -3.15604
rtoes 9.93679
lfemur -11.0754 5.91075 -15.7684
ltibia 17.7677
lfoot -9.42287 7.01646
ltoes -3.13265
601
root 0.0296475 17.7185 2.41645 6.69867 -0.194456 -1.88676
lowerback -4.168 -0.378991 -0.129811
upperback 0.819086 -0.545358 1.495
thorax 3.19626 -0.288336 1.57437
lowerneck -12.2704 -2.03548 -3.43606
upperneck 16.7219 -2.48196 2.03608
head 7.2171 -1.22384 0.985601
rclavicle 5.46658e-016 2.98177e-015
rhumerus -28.5358 -20.6742 -78.5725
rradius 21.6513
rwrist 37.1803
rhand -20.1111 -26.0206
rfingers 7.12502
rthumb 6.23251 -55.9089
lclavicle 5.46658e-016 2.98177e-015
lhumerus -25.8724 2.4341 88.4934
lradius 16.3264
lwrist 2.00601
lhand -26.3888 -5.21267
lfingers 7.12502
lthumb 0.170189 24.767
rfemur -11.3657 -0.923631 18.7402
rtibia 19.4977
rfoot -13.1698 -3.16876
rtoes 9.89442
lfemur -11.0645 5.91932 -15.7857
ltibia 17.7516
lfoot -9.42961 7.0074
ltoes -3.10736
602
root 0.0311212 17.7187 2.41771 6.70194 -0.199947 -1.87225
lowerback -4.1849 -0.389008 -0.1415
upperback 0.822759 -0.558116 1.4902
thorax 3.21 -0.29493 1.57502
lowerneck -12.2511 -2.10427 -3.46487
upperneck 16.7265 -2.57195 2.03966
head 7.2183 -1.26859 0.982707
rclavicle -1.67725e-015 1.27222e-014
rhumerus -28.5175 -20.7198 -78.545
rradius 21.6374
rwrist 37.2119
rhand -20.0954 -26.0363
rfingers 7.12502
rthumb 6.24773 -55.9242
lclavicle -1.67725e-015 1.27222e-014
lhumerus -25.8699 2.38091 88.5443
lradius 16.385
lwrist 2.08685
lhand -26.3711 -5.1955
lfingers 7.12502
lthumb 0.187372 24.7842
rfemur -11.3665 -0.919949 18.7182
rtibia 19.5016
rfoot -13.1771 -3.17921
rtoes 9.85967
lfemur -11.0526 5.92655 -15.8077
ltibia 17.7339
lfoot -9.43477 7.00262
ltoes -3.08945
603
root 0.0325435 17.7188 2.41902 6.70553 -0.207175 -1.8593
lowerback -4.20256 -0.398621 -0.152303
upperback 0.825832 -0.570374 1.48542
thorax 3.22353 -0.301255 1.57522
lowerneck -12.2394 -2.17378 -3.49673
upperneck 16.7386 -2.6633 2.04926
head 7.22349 -1.31361 0.982065
rclavicle 3.73964e-015 -1.98785e-015
rhumerus -28.5063 -20.7361 -78.5276
rradius 21.6371
rwrist 37.2145
rhand -20.0728 -26.0612
rfingers 7.12502
rthumb 6.26957 -55.9485
lclavicle 3.73964e-015 -1.98785e-015
lhumerus -25.8676 2.32135 88.5952
lradius 16.4403
lwrist 2.17364
lhand -26.3496 -5.16967
lfingers 7.12502
lthumb 0.208115 24.81
rfemur -11.3682 -0.915701 18.6981
rtibia 19.5065
rfoot -13.1844 -3.18835
rtoes 9.82614
lfemur -11.041 5.93046 -15.8278
ltibia 17.7171
lfoot -9.43757 7.00427
ltoes -3.07806
604
root 0.0338929 17.7189 2.42025 6.70932 -0.216236 -1.84574
lowerback -4.21921 -0.408233 -0.165438
upperback 0.827672 -0.582495 1.48119
thorax 3.23525 -0.307551 1.57731
lowerneck -12.2333 -2.24301 -3.53728
upperneck 16.758 -2.75427 2.06855
head 7.23236 -1.35809 0.985978
rclavicle 6.43565e-015 -5.96354e-015
rhumerus -28.5012 -20.7249 -78.5183
rradius 21.6477
rwrist 37.1898
rhand -20.0526 -26.0904
rfingers 7.12502
rthumb 6.28906 -55.977
lclavicle 6.43565e-015 -5.96354e-015
lhumerus -25.8664 2.25786 88.6473
lradius 16.49
lwrist 2.25874
lhand -26.3304 -5.13406
lfingers 7.12502
lthumb 0.226597 24.8456
rfemur -11.3712 -0.907488 18.6774
rtibia 19.512
rfoot -13.1916 -3.19853
rtoes 9.80346
lfemur -11.0315 5.93185 -15.8484
ltibia 17.7036
lfoot -9.43742 7.01221
ltoes -3.0794
605
root 0.0351106 17.7188 2.42134 6.71204 -0.228503 -1.83692
lowerback -4.2328 -0.416973 -0.175626
upperback 0.829703 -0.59363 1.47829
thorax 3.2454 -0.313309 1.57919
lowerneck -12.2414 -2.30889 -3.58332
upperneck 16.7876 -2.84129 2.09886
head 7.24719 -1.39996 0.99461
rclavicle 1.16786e-015 -3.97569e-016
rhumerus -28.4975 -20.7145 -78.5097
rradius 21.6592
rwrist 37.1673
rhand -20.032 -26.1212
rfingers 7.12502
rthumb 6.30893 -56.0072
lclavicle 1.16786e-015 -3.97569e-016
lhumerus -25.8618 2.19685 88.6967
lradius 16.537
lwrist 2.34798
lhand -26.2985 -5.088
lfingers 7.12502
lthumb 0.257478 24.8916
rfemur -11.3741 -0.894712 18.6626
rtibia 19.5174
rfoot -13.1969 -3.2096
rtoes 9.78056
lfemur -11.0239 5.93268 -15.863
ltibia 17.6963
lfoot -9.43984 7.02515
ltoes -3.07762
